<mxfile host="app.diagrams.net" modified="2022-12-07T05:17:38.060Z" agent="5.0 (Windows NT 10.0; Win64; x64) AppleWebKit/537.36 (KHTML, like Gecko) Chrome/108.0.0.0 Safari/537.36" etag="1uqomd5xqtpesYpDjZ4Q" version="20.6.0" type="github" pages="5">
  <diagram id="krtiONgvCwZE9kZQAfwz" name="metodologi">
    <mxGraphModel dx="1038" dy="489" grid="1" gridSize="10" guides="1" tooltips="1" connect="1" arrows="1" fold="1" page="1" pageScale="1" pageWidth="827" pageHeight="1169" math="0" shadow="0">
      <root>
        <mxCell id="0" />
        <mxCell id="1" parent="0" />
        <mxCell id="3Ln-GhuqyoS-aDaGr7-3-17" value="" style="rounded=1;whiteSpace=wrap;html=1;" parent="1" vertex="1">
          <mxGeometry x="140" y="390" width="500" height="110" as="geometry" />
        </mxCell>
        <mxCell id="3Ln-GhuqyoS-aDaGr7-3-14" value="" style="rounded=1;whiteSpace=wrap;html=1;" parent="1" vertex="1">
          <mxGeometry x="140" y="275" width="500" height="110" as="geometry" />
        </mxCell>
        <mxCell id="3Ln-GhuqyoS-aDaGr7-3-12" value="" style="rounded=1;whiteSpace=wrap;html=1;" parent="1" vertex="1">
          <mxGeometry x="140" y="160" width="500" height="110" as="geometry" />
        </mxCell>
        <mxCell id="3Ln-GhuqyoS-aDaGr7-3-3" value="" style="edgeStyle=orthogonalEdgeStyle;rounded=0;orthogonalLoop=1;jettySize=auto;html=1;" parent="1" source="3Ln-GhuqyoS-aDaGr7-3-1" target="3Ln-GhuqyoS-aDaGr7-3-2" edge="1">
          <mxGeometry relative="1" as="geometry" />
        </mxCell>
        <mxCell id="3Ln-GhuqyoS-aDaGr7-3-1" value="Dataset Video/Rekaman" style="rounded=1;whiteSpace=wrap;html=1;" parent="1" vertex="1">
          <mxGeometry x="170" y="190" width="120" height="60" as="geometry" />
        </mxCell>
        <mxCell id="3Ln-GhuqyoS-aDaGr7-3-5" value="" style="edgeStyle=orthogonalEdgeStyle;rounded=0;orthogonalLoop=1;jettySize=auto;html=1;" parent="1" source="3Ln-GhuqyoS-aDaGr7-3-2" target="3Ln-GhuqyoS-aDaGr7-3-4" edge="1">
          <mxGeometry relative="1" as="geometry" />
        </mxCell>
        <mxCell id="3Ln-GhuqyoS-aDaGr7-3-2" value="Citra" style="rounded=1;whiteSpace=wrap;html=1;" parent="1" vertex="1">
          <mxGeometry x="340" y="190" width="120" height="60" as="geometry" />
        </mxCell>
        <mxCell id="3Ln-GhuqyoS-aDaGr7-3-7" value="" style="edgeStyle=orthogonalEdgeStyle;rounded=0;orthogonalLoop=1;jettySize=auto;html=1;" parent="1" source="3Ln-GhuqyoS-aDaGr7-3-4" target="3Ln-GhuqyoS-aDaGr7-3-6" edge="1">
          <mxGeometry relative="1" as="geometry" />
        </mxCell>
        <mxCell id="3Ln-GhuqyoS-aDaGr7-3-4" value="Face Mesh, Pose, dan Penyesuaian Ukuran Citra" style="rounded=1;whiteSpace=wrap;html=1;" parent="1" vertex="1">
          <mxGeometry x="510" y="190" width="120" height="60" as="geometry" />
        </mxCell>
        <mxCell id="3Ln-GhuqyoS-aDaGr7-3-9" value="" style="edgeStyle=orthogonalEdgeStyle;rounded=0;orthogonalLoop=1;jettySize=auto;html=1;" parent="1" source="3Ln-GhuqyoS-aDaGr7-3-6" target="3Ln-GhuqyoS-aDaGr7-3-8" edge="1">
          <mxGeometry relative="1" as="geometry" />
        </mxCell>
        <mxCell id="3Ln-GhuqyoS-aDaGr7-3-6" value="Pembuatan Klasifikasi" style="rounded=1;whiteSpace=wrap;html=1;" parent="1" vertex="1">
          <mxGeometry x="510" y="300" width="120" height="60" as="geometry" />
        </mxCell>
        <mxCell id="3Ln-GhuqyoS-aDaGr7-3-11" value="" style="edgeStyle=orthogonalEdgeStyle;rounded=0;orthogonalLoop=1;jettySize=auto;html=1;" parent="1" source="3Ln-GhuqyoS-aDaGr7-3-8" target="3Ln-GhuqyoS-aDaGr7-3-10" edge="1">
          <mxGeometry relative="1" as="geometry" />
        </mxCell>
        <mxCell id="3Ln-GhuqyoS-aDaGr7-3-8" value="Pemodelan CNN" style="rounded=1;whiteSpace=wrap;html=1;" parent="1" vertex="1">
          <mxGeometry x="340" y="300" width="120" height="60" as="geometry" />
        </mxCell>
        <mxCell id="3Ln-GhuqyoS-aDaGr7-3-19" style="edgeStyle=orthogonalEdgeStyle;rounded=0;orthogonalLoop=1;jettySize=auto;html=1;" parent="1" source="3Ln-GhuqyoS-aDaGr7-3-10" target="3Ln-GhuqyoS-aDaGr7-3-16" edge="1">
          <mxGeometry relative="1" as="geometry" />
        </mxCell>
        <mxCell id="3Ln-GhuqyoS-aDaGr7-3-10" value="Pemodelan LSTM" style="rounded=1;whiteSpace=wrap;html=1;" parent="1" vertex="1">
          <mxGeometry x="170" y="300" width="120" height="60" as="geometry" />
        </mxCell>
        <mxCell id="3Ln-GhuqyoS-aDaGr7-3-13" value="Data Preprocessing" style="text;html=1;strokeColor=none;fillColor=none;align=center;verticalAlign=middle;whiteSpace=wrap;rounded=0;" parent="1" vertex="1">
          <mxGeometry x="337.5" y="160" width="125" height="30" as="geometry" />
        </mxCell>
        <mxCell id="3Ln-GhuqyoS-aDaGr7-3-15" value="Pemodelan Identifikasi Huruf" style="text;html=1;strokeColor=none;fillColor=none;align=center;verticalAlign=middle;whiteSpace=wrap;rounded=0;" parent="1" vertex="1">
          <mxGeometry x="313.75" y="270" width="172.5" height="30" as="geometry" />
        </mxCell>
        <mxCell id="3Ln-GhuqyoS-aDaGr7-3-21" value="" style="edgeStyle=orthogonalEdgeStyle;rounded=0;orthogonalLoop=1;jettySize=auto;html=1;" parent="1" source="3Ln-GhuqyoS-aDaGr7-3-16" target="3Ln-GhuqyoS-aDaGr7-3-20" edge="1">
          <mxGeometry relative="1" as="geometry" />
        </mxCell>
        <mxCell id="3Ln-GhuqyoS-aDaGr7-3-16" value="Pelatihan Model" style="rounded=1;whiteSpace=wrap;html=1;" parent="1" vertex="1">
          <mxGeometry x="170" y="417.5" width="120" height="60" as="geometry" />
        </mxCell>
        <mxCell id="3Ln-GhuqyoS-aDaGr7-3-18" value="Pelatihan Model Identifikasi Huruf" style="text;html=1;strokeColor=none;fillColor=none;align=center;verticalAlign=middle;whiteSpace=wrap;rounded=0;" parent="1" vertex="1">
          <mxGeometry x="306.87" y="390" width="186.25" height="30" as="geometry" />
        </mxCell>
        <mxCell id="3Ln-GhuqyoS-aDaGr7-3-23" value="" style="edgeStyle=orthogonalEdgeStyle;rounded=0;orthogonalLoop=1;jettySize=auto;html=1;" parent="1" source="3Ln-GhuqyoS-aDaGr7-3-20" target="3Ln-GhuqyoS-aDaGr7-3-22" edge="1">
          <mxGeometry relative="1" as="geometry" />
        </mxCell>
        <mxCell id="3Ln-GhuqyoS-aDaGr7-3-20" value="Pengujian Model" style="rounded=1;whiteSpace=wrap;html=1;" parent="1" vertex="1">
          <mxGeometry x="342.5" y="417.5" width="120" height="60" as="geometry" />
        </mxCell>
        <mxCell id="t3WdEGNYzIKjm6ke9rZm-4" style="edgeStyle=orthogonalEdgeStyle;rounded=0;orthogonalLoop=1;jettySize=auto;html=1;startArrow=none;startFill=0;" edge="1" parent="1" source="3Ln-GhuqyoS-aDaGr7-3-22" target="t3WdEGNYzIKjm6ke9rZm-1">
          <mxGeometry relative="1" as="geometry" />
        </mxCell>
        <mxCell id="3Ln-GhuqyoS-aDaGr7-3-22" value="Pemutakhiran Model" style="rounded=1;whiteSpace=wrap;html=1;" parent="1" vertex="1">
          <mxGeometry x="510" y="417.5" width="120" height="60" as="geometry" />
        </mxCell>
        <mxCell id="t3WdEGNYzIKjm6ke9rZm-1" value="Analisis Hasil" style="rounded=1;whiteSpace=wrap;html=1;" vertex="1" parent="1">
          <mxGeometry x="510" y="525" width="120" height="60" as="geometry" />
        </mxCell>
      </root>
    </mxGraphModel>
  </diagram>
  <diagram id="2ku8PVr4WOm1CHyFq7MV" name="metodologi-data-proc">
    <mxGraphModel dx="1038" dy="489" grid="1" gridSize="10" guides="1" tooltips="1" connect="1" arrows="1" fold="1" page="1" pageScale="1" pageWidth="827" pageHeight="1169" math="0" shadow="0">
      <root>
        <mxCell id="0" />
        <mxCell id="1" parent="0" />
        <mxCell id="PuEos_XJJQOIyXwsl5NT-1" value="" style="rounded=1;whiteSpace=wrap;html=1;" vertex="1" parent="1">
          <mxGeometry x="140" y="160" width="500" height="110" as="geometry" />
        </mxCell>
        <mxCell id="PuEos_XJJQOIyXwsl5NT-2" value="" style="edgeStyle=orthogonalEdgeStyle;rounded=0;orthogonalLoop=1;jettySize=auto;html=1;" edge="1" parent="1" source="PuEos_XJJQOIyXwsl5NT-3" target="PuEos_XJJQOIyXwsl5NT-5">
          <mxGeometry relative="1" as="geometry" />
        </mxCell>
        <mxCell id="PuEos_XJJQOIyXwsl5NT-3" value="Dataset Video/Rekaman" style="rounded=1;whiteSpace=wrap;html=1;" vertex="1" parent="1">
          <mxGeometry x="170" y="190" width="120" height="60" as="geometry" />
        </mxCell>
        <mxCell id="PuEos_XJJQOIyXwsl5NT-4" value="" style="edgeStyle=orthogonalEdgeStyle;rounded=0;orthogonalLoop=1;jettySize=auto;html=1;" edge="1" parent="1" source="PuEos_XJJQOIyXwsl5NT-5" target="PuEos_XJJQOIyXwsl5NT-6">
          <mxGeometry relative="1" as="geometry" />
        </mxCell>
        <mxCell id="PuEos_XJJQOIyXwsl5NT-5" value="Citra" style="rounded=1;whiteSpace=wrap;html=1;" vertex="1" parent="1">
          <mxGeometry x="340" y="190" width="120" height="60" as="geometry" />
        </mxCell>
        <mxCell id="PuEos_XJJQOIyXwsl5NT-6" value="Face Mesh, Pose, dan Penyesuaian Ukuran Citra" style="rounded=1;whiteSpace=wrap;html=1;" vertex="1" parent="1">
          <mxGeometry x="510" y="190" width="120" height="60" as="geometry" />
        </mxCell>
        <mxCell id="PuEos_XJJQOIyXwsl5NT-7" value="Data Preprocessing" style="text;html=1;strokeColor=none;fillColor=none;align=center;verticalAlign=middle;whiteSpace=wrap;rounded=0;" vertex="1" parent="1">
          <mxGeometry x="337.5" y="160" width="125" height="30" as="geometry" />
        </mxCell>
      </root>
    </mxGraphModel>
  </diagram>
  <diagram id="rX4uBZHaI65R2cpVml_w" name="metodologi-identifikasi-huruf">
    <mxGraphModel dx="1038" dy="489" grid="1" gridSize="10" guides="1" tooltips="1" connect="1" arrows="1" fold="1" page="1" pageScale="1" pageWidth="827" pageHeight="1169" math="0" shadow="0">
      <root>
        <mxCell id="0" />
        <mxCell id="1" parent="0" />
        <mxCell id="xoUcgjzHLNkl9VXZld-5-1" value="" style="rounded=1;whiteSpace=wrap;html=1;" vertex="1" parent="1">
          <mxGeometry x="140" y="275" width="500" height="110" as="geometry" />
        </mxCell>
        <mxCell id="xoUcgjzHLNkl9VXZld-5-2" value="" style="edgeStyle=orthogonalEdgeStyle;rounded=0;orthogonalLoop=1;jettySize=auto;html=1;" edge="1" parent="1" source="xoUcgjzHLNkl9VXZld-5-3" target="xoUcgjzHLNkl9VXZld-5-5">
          <mxGeometry relative="1" as="geometry" />
        </mxCell>
        <mxCell id="xoUcgjzHLNkl9VXZld-5-3" value="Pembuatan Klasifikasi" style="rounded=1;whiteSpace=wrap;html=1;" vertex="1" parent="1">
          <mxGeometry x="170" y="300" width="120" height="60" as="geometry" />
        </mxCell>
        <mxCell id="xoUcgjzHLNkl9VXZld-5-4" value="" style="edgeStyle=orthogonalEdgeStyle;rounded=0;orthogonalLoop=1;jettySize=auto;html=1;" edge="1" parent="1" source="xoUcgjzHLNkl9VXZld-5-5" target="xoUcgjzHLNkl9VXZld-5-6">
          <mxGeometry relative="1" as="geometry" />
        </mxCell>
        <mxCell id="xoUcgjzHLNkl9VXZld-5-5" value="Pemodelan CNN" style="rounded=1;whiteSpace=wrap;html=1;" vertex="1" parent="1">
          <mxGeometry x="340" y="300" width="120" height="60" as="geometry" />
        </mxCell>
        <mxCell id="xoUcgjzHLNkl9VXZld-5-6" value="Pemodelan LSTM" style="rounded=1;whiteSpace=wrap;html=1;" vertex="1" parent="1">
          <mxGeometry x="500" y="300" width="120" height="60" as="geometry" />
        </mxCell>
        <mxCell id="xoUcgjzHLNkl9VXZld-5-7" value="Pemodelan Identifikasi Huruf" style="text;html=1;strokeColor=none;fillColor=none;align=center;verticalAlign=middle;whiteSpace=wrap;rounded=0;" vertex="1" parent="1">
          <mxGeometry x="313.75" y="270" width="172.5" height="30" as="geometry" />
        </mxCell>
      </root>
    </mxGraphModel>
  </diagram>
  <diagram id="O6WO4FakzGsF9bqNCsbh" name="metodologi-pelatihan">
    <mxGraphModel dx="903" dy="425" grid="1" gridSize="10" guides="1" tooltips="1" connect="1" arrows="1" fold="1" page="1" pageScale="1" pageWidth="827" pageHeight="1169" math="0" shadow="0">
      <root>
        <mxCell id="0" />
        <mxCell id="1" parent="0" />
        <mxCell id="W44doAoQlrMI2lEzzg1L-1" value="" style="rounded=1;whiteSpace=wrap;html=1;" vertex="1" parent="1">
          <mxGeometry x="140" y="390" width="500" height="110" as="geometry" />
        </mxCell>
        <mxCell id="W44doAoQlrMI2lEzzg1L-2" value="" style="edgeStyle=orthogonalEdgeStyle;rounded=0;orthogonalLoop=1;jettySize=auto;html=1;" edge="1" parent="1" source="W44doAoQlrMI2lEzzg1L-3" target="W44doAoQlrMI2lEzzg1L-6">
          <mxGeometry relative="1" as="geometry" />
        </mxCell>
        <mxCell id="W44doAoQlrMI2lEzzg1L-3" value="Pelatihan Model" style="rounded=1;whiteSpace=wrap;html=1;" vertex="1" parent="1">
          <mxGeometry x="170" y="417.5" width="120" height="60" as="geometry" />
        </mxCell>
        <mxCell id="W44doAoQlrMI2lEzzg1L-4" value="Pelatihan Model Identifikasi Huruf" style="text;html=1;strokeColor=none;fillColor=none;align=center;verticalAlign=middle;whiteSpace=wrap;rounded=0;" vertex="1" parent="1">
          <mxGeometry x="306.87" y="390" width="186.25" height="30" as="geometry" />
        </mxCell>
        <mxCell id="W44doAoQlrMI2lEzzg1L-5" value="" style="edgeStyle=orthogonalEdgeStyle;rounded=0;orthogonalLoop=1;jettySize=auto;html=1;startArrow=none;startFill=0;" edge="1" parent="1" source="W44doAoQlrMI2lEzzg1L-6" target="W44doAoQlrMI2lEzzg1L-7">
          <mxGeometry relative="1" as="geometry" />
        </mxCell>
        <mxCell id="W44doAoQlrMI2lEzzg1L-6" value="Pengujian Model" style="rounded=1;whiteSpace=wrap;html=1;" vertex="1" parent="1">
          <mxGeometry x="342.5" y="417.5" width="120" height="60" as="geometry" />
        </mxCell>
        <mxCell id="W44doAoQlrMI2lEzzg1L-7" value="Validasi Model" style="rounded=1;whiteSpace=wrap;html=1;" vertex="1" parent="1">
          <mxGeometry x="510" y="417.5" width="120" height="60" as="geometry" />
        </mxCell>
      </root>
    </mxGraphModel>
  </diagram>
  <diagram id="rMzWYSJR2DRLvTLI-V_G" name="metodologi-simplified">
    <mxGraphModel dx="1038" dy="489" grid="1" gridSize="10" guides="1" tooltips="1" connect="1" arrows="1" fold="1" page="1" pageScale="1" pageWidth="827" pageHeight="1169" math="0" shadow="0">
      <root>
        <mxCell id="0" />
        <mxCell id="1" parent="0" />
        <mxCell id="BpluVZ2RL_XilJl6ynUt-1" value="" style="edgeStyle=orthogonalEdgeStyle;rounded=0;orthogonalLoop=1;jettySize=auto;html=1;" edge="1" parent="1" source="BpluVZ2RL_XilJl6ynUt-2" target="BpluVZ2RL_XilJl6ynUt-3">
          <mxGeometry relative="1" as="geometry" />
        </mxCell>
        <mxCell id="BpluVZ2RL_XilJl6ynUt-2" value="Data Preprocessing" style="rounded=1;whiteSpace=wrap;html=1;" vertex="1" parent="1">
          <mxGeometry x="90" y="180" width="120" height="60" as="geometry" />
        </mxCell>
        <mxCell id="BpluVZ2RL_XilJl6ynUt-5" value="" style="edgeStyle=orthogonalEdgeStyle;rounded=0;orthogonalLoop=1;jettySize=auto;html=1;startArrow=none;startFill=0;" edge="1" parent="1" source="BpluVZ2RL_XilJl6ynUt-3" target="BpluVZ2RL_XilJl6ynUt-4">
          <mxGeometry relative="1" as="geometry" />
        </mxCell>
        <mxCell id="BpluVZ2RL_XilJl6ynUt-3" value="Pemodelan Identifikasi Huruf" style="rounded=1;whiteSpace=wrap;html=1;" vertex="1" parent="1">
          <mxGeometry x="260" y="180" width="120" height="60" as="geometry" />
        </mxCell>
        <mxCell id="BpluVZ2RL_XilJl6ynUt-7" value="" style="edgeStyle=orthogonalEdgeStyle;rounded=0;orthogonalLoop=1;jettySize=auto;html=1;startArrow=none;startFill=0;" edge="1" parent="1" source="BpluVZ2RL_XilJl6ynUt-4" target="BpluVZ2RL_XilJl6ynUt-6">
          <mxGeometry relative="1" as="geometry" />
        </mxCell>
        <mxCell id="BpluVZ2RL_XilJl6ynUt-4" value="Pelatihan Model Identifikasi Huruf" style="rounded=1;whiteSpace=wrap;html=1;" vertex="1" parent="1">
          <mxGeometry x="430" y="180" width="120" height="60" as="geometry" />
        </mxCell>
        <mxCell id="BpluVZ2RL_XilJl6ynUt-6" value="Analisis Hasil Model" style="rounded=1;whiteSpace=wrap;html=1;" vertex="1" parent="1">
          <mxGeometry x="600" y="180" width="120" height="60" as="geometry" />
        </mxCell>
      </root>
    </mxGraphModel>
  </diagram>
</mxfile>
